<?xml version="1.0" encoding="utf-8"?>
<svg viewBox="6.138 4.464 235.491 229.353" xmlns="http://www.w3.org/2000/svg">
  <defs>
    <linearGradient gradientUnits="userSpaceOnUse" x1="250" y1="75.938" x2="250" y2="290.134" id="gradient-0" gradientTransform="matrix(0.999987, -0.004934, 0.003406, 0.690084, -133.608701, -16.258325)">
      <stop offset="0" style="stop-color: rgb(255, 77, 0);"/>
      <stop offset="1" style="stop-color: rgb(255, 225, 0);"/>
    </linearGradient>
  </defs>
  <circle style="paint-order: fill; fill: url(#gradient-0);" cx="116.975" cy="119.037" r="107.098"/>
  <path d="M 24.177 35.933 L 17.027 35.933 L 17.027 34.213 L 19.247 33.823 L 19.247 18.063 L 14.737 18.063 L 14.347 20.823 L 12.317 20.823 L 12.317 16.023 L 28.867 16.023 L 28.867 20.823 L 26.867 20.823 L 26.457 18.063 L 21.947 18.063 L 21.947 33.823 L 24.177 34.213 L 24.177 35.933 Z M 38.044 35.933 L 30.894 35.933 L 30.894 34.213 L 33.124 33.823 L 33.124 16.723 L 30.894 16.343 L 30.894 14.603 L 35.814 14.603 L 35.814 23.113 C 36.327 22.4 36.951 21.846 37.684 21.453 C 38.424 21.06 39.247 20.863 40.154 20.863 C 41.734 20.863 42.964 21.34 43.844 22.293 C 44.717 23.24 45.154 24.696 45.154 26.663 L 45.154 33.823 L 47.384 34.213 L 47.384 35.933 L 40.234 35.933 L 40.234 34.213 L 42.464 33.823 L 42.464 26.633 C 42.464 25.413 42.201 24.513 41.674 23.933 C 41.147 23.346 40.367 23.053 39.334 23.053 C 38.594 23.053 37.921 23.23 37.314 23.583 C 36.707 23.93 36.207 24.406 35.814 25.013 L 35.814 33.823 L 38.044 34.213 L 38.044 35.933 Z M 53.997 36.223 C 52.457 36.223 51.284 35.846 50.477 35.093 C 49.677 34.34 49.277 33.28 49.277 31.913 C 49.277 30.973 49.534 30.156 50.047 29.463 C 50.567 28.763 51.314 28.22 52.287 27.833 C 53.26 27.446 54.427 27.253 55.787 27.253 L 58.427 27.253 L 58.427 25.803 C 58.427 24.91 58.154 24.216 57.607 23.723 C 57.067 23.23 56.304 22.983 55.317 22.983 C 54.697 22.983 54.16 23.06 53.707 23.213 C 53.254 23.36 52.84 23.566 52.467 23.833 L 52.177 25.893 L 50.097 25.893 L 50.097 22.503 C 50.764 21.97 51.537 21.563 52.417 21.283 C 53.304 21.003 54.284 20.863 55.357 20.863 C 57.157 20.863 58.567 21.293 59.587 22.153 C 60.607 23.006 61.117 24.233 61.117 25.833 L 61.117 32.953 C 61.117 33.146 61.12 33.333 61.127 33.513 C 61.127 33.693 61.137 33.876 61.157 34.063 L 62.597 34.213 L 62.597 35.933 L 58.727 35.933 C 58.64 35.533 58.577 35.173 58.537 34.853 C 58.49 34.533 58.457 34.213 58.437 33.893 C 57.917 34.56 57.267 35.113 56.487 35.553 C 55.707 36 54.877 36.223 53.997 36.223 Z M 54.387 33.963 C 55.28 33.963 56.097 33.75 56.837 33.323 C 57.577 32.896 58.107 32.38 58.427 31.773 L 58.427 29.093 L 55.687 29.093 C 54.447 29.093 53.517 29.39 52.897 29.983 C 52.277 30.576 51.967 31.24 51.967 31.973 C 51.967 32.62 52.17 33.113 52.577 33.453 C 52.977 33.793 53.58 33.963 54.387 33.963 Z M 71.829 35.933 L 64.679 35.933 L 64.679 34.213 L 66.909 33.823 L 66.909 23.263 L 64.679 22.873 L 64.679 21.143 L 69.319 21.143 L 69.509 23.343 C 70.002 22.556 70.619 21.946 71.359 21.513 C 72.099 21.08 72.946 20.863 73.899 20.863 C 75.492 20.863 76.726 21.33 77.599 22.263 C 78.472 23.203 78.909 24.646 78.909 26.593 L 78.909 33.823 L 81.139 34.213 L 81.139 35.933 L 73.989 35.933 L 73.989 34.213 L 76.219 33.823 L 76.219 26.653 C 76.219 25.346 75.962 24.42 75.449 23.873 C 74.936 23.326 74.149 23.053 73.089 23.053 C 72.316 23.053 71.629 23.24 71.029 23.613 C 70.436 23.986 69.959 24.496 69.599 25.143 L 69.599 33.823 L 71.829 34.213 L 71.829 35.933 Z M 89.845 35.933 L 82.695 35.933 L 82.695 34.213 L 84.925 33.823 L 84.925 16.723 L 82.695 16.343 L 82.695 14.603 L 87.615 14.603 L 87.615 23.113 C 88.128 22.4 88.751 21.846 89.485 21.453 C 90.225 21.06 91.048 20.863 91.955 20.863 C 93.535 20.863 94.765 21.34 95.645 22.293 C 96.518 23.24 96.955 24.696 96.955 26.663 L 96.955 33.823 L 99.185 34.213 L 99.185 35.933 L 92.035 35.933 L 92.035 34.213 L 94.265 33.823 L 94.265 26.633 C 94.265 25.413 94.001 24.513 93.475 23.933 C 92.948 23.346 92.168 23.053 91.135 23.053 C 90.395 23.053 89.721 23.23 89.115 23.583 C 88.508 23.93 88.008 24.406 87.615 25.013 L 87.615 33.823 L 89.845 34.213 L 89.845 35.933 Z" style="white-space: pre;"/>
  <path d="M 20.558 64.188 L 12.628 64.188 L 12.628 62.468 L 14.858 62.078 L 14.858 46.398 L 12.628 46.018 L 12.628 44.278 L 14.858 44.278 L 20.418 44.278 C 22.178 44.278 23.711 44.698 25.018 45.538 C 26.325 46.378 27.345 47.531 28.078 48.998 C 28.805 50.465 29.168 52.141 29.168 54.028 L 29.168 54.458 C 29.168 56.298 28.818 57.955 28.118 59.428 C 27.411 60.895 26.415 62.055 25.128 62.908 C 23.841 63.761 22.318 64.188 20.558 64.188 Z M 17.548 46.398 L 17.548 62.078 L 20.418 62.078 C 21.678 62.078 22.758 61.735 23.658 61.048 C 24.558 60.361 25.255 59.441 25.748 58.288 C 26.235 57.135 26.478 55.858 26.478 54.458 L 26.478 53.998 C 26.478 52.551 26.235 51.255 25.748 50.108 C 25.255 48.968 24.558 48.065 23.658 47.398 C 22.758 46.731 21.678 46.398 20.418 46.398 L 17.548 46.398 Z M 37.752 64.478 C 36.385 64.478 35.205 64.155 34.212 63.508 C 33.225 62.868 32.462 61.981 31.922 60.848 C 31.388 59.715 31.122 58.418 31.122 56.958 L 31.122 56.658 C 31.122 55.198 31.388 53.901 31.922 52.768 C 32.462 51.628 33.225 50.735 34.212 50.088 C 35.205 49.441 36.375 49.118 37.722 49.118 C 39.088 49.118 40.265 49.441 41.252 50.088 C 42.245 50.735 43.008 51.625 43.542 52.758 C 44.082 53.891 44.352 55.191 44.352 56.658 L 44.352 56.958 C 44.352 58.425 44.082 59.725 43.542 60.858 C 43.008 61.991 42.248 62.878 41.262 63.518 C 40.275 64.158 39.105 64.478 37.752 64.478 Z M 37.752 62.368 C 38.605 62.368 39.322 62.135 39.902 61.668 C 40.482 61.195 40.918 60.551 41.212 59.738 C 41.512 58.925 41.662 57.998 41.662 56.958 L 41.662 56.658 C 41.662 55.618 41.512 54.688 41.212 53.868 C 40.918 53.055 40.478 52.415 39.892 51.948 C 39.312 51.475 38.588 51.238 37.722 51.238 C 36.862 51.238 36.142 51.475 35.562 51.948 C 34.975 52.415 34.538 53.055 34.252 53.868 C 33.958 54.688 33.812 55.618 33.812 56.658 L 33.812 56.958 C 33.812 57.998 33.958 58.925 34.252 59.738 C 34.538 60.551 34.978 61.195 35.572 61.668 C 36.158 62.135 36.885 62.368 37.752 62.368 Z M 52.712 64.478 C 51.512 64.478 50.482 64.178 49.622 63.578 C 48.756 62.985 48.096 62.155 47.642 61.088 C 47.189 60.021 46.962 58.775 46.962 57.348 L 46.962 57.068 C 46.962 55.481 47.189 54.091 47.642 52.898 C 48.096 51.705 48.756 50.775 49.622 50.108 C 50.489 49.448 51.529 49.118 52.742 49.118 C 53.616 49.118 54.389 49.281 55.062 49.608 C 55.729 49.928 56.299 50.395 56.772 51.008 L 56.772 44.978 L 54.542 44.598 L 54.542 42.858 L 56.772 42.858 L 59.472 42.858 L 59.472 62.078 L 61.692 62.468 L 61.692 64.188 L 57.132 64.188 L 56.912 62.428 C 56.426 63.101 55.836 63.611 55.142 63.958 C 54.442 64.305 53.632 64.478 52.712 64.478 Z M 53.402 62.288 C 54.202 62.288 54.876 62.105 55.422 61.738 C 55.969 61.378 56.419 60.865 56.772 60.198 L 56.772 53.328 C 56.426 52.708 55.976 52.218 55.422 51.858 C 54.869 51.491 54.202 51.308 53.422 51.308 C 52.569 51.308 51.862 51.551 51.302 52.038 C 50.749 52.525 50.336 53.201 50.062 54.068 C 49.789 54.928 49.652 55.928 49.652 57.068 L 49.652 57.348 C 49.652 58.835 49.959 60.031 50.572 60.938 C 51.179 61.838 52.122 62.288 53.402 62.288 Z M 70.221 64.478 C 68.855 64.478 67.665 64.165 66.651 63.538 C 65.645 62.911 64.865 62.045 64.311 60.938 C 63.758 59.825 63.481 58.538 63.481 57.078 L 63.481 56.478 C 63.481 55.071 63.771 53.815 64.351 52.708 C 64.931 51.601 65.701 50.728 66.661 50.088 C 67.621 49.441 68.671 49.118 69.811 49.118 C 71.145 49.118 72.258 49.391 73.151 49.938 C 74.051 50.485 74.728 51.255 75.181 52.248 C 75.641 53.235 75.871 54.398 75.871 55.738 L 75.871 57.418 L 66.271 57.418 L 66.231 57.488 C 66.251 58.435 66.418 59.275 66.731 60.008 C 67.045 60.741 67.498 61.318 68.091 61.738 C 68.685 62.158 69.395 62.368 70.221 62.368 C 71.135 62.368 71.935 62.238 72.621 61.978 C 73.308 61.718 73.905 61.361 74.411 60.908 L 75.461 62.658 C 74.935 63.165 74.235 63.595 73.361 63.948 C 72.488 64.301 71.441 64.478 70.221 64.478 Z M 66.331 55.248 L 66.351 55.318 L 73.181 55.318 L 73.181 54.958 C 73.181 54.251 73.055 53.615 72.801 53.048 C 72.548 52.488 72.175 52.048 71.681 51.728 C 71.181 51.401 70.558 51.238 69.811 51.238 C 69.211 51.238 68.665 51.415 68.171 51.768 C 67.678 52.121 67.271 52.598 66.951 53.198 C 66.638 53.798 66.431 54.481 66.331 55.248 Z M 84.466 64.478 C 82.859 64.478 81.606 63.961 80.706 62.928 C 79.806 61.901 79.356 60.298 79.356 58.118 L 79.356 51.518 L 77.656 51.128 L 77.656 49.398 L 79.356 49.398 L 82.046 49.398 L 82.046 58.148 C 82.046 59.721 82.279 60.805 82.746 61.398 C 83.206 61.991 83.929 62.288 84.916 62.288 C 85.876 62.288 86.666 62.095 87.286 61.708 C 87.912 61.321 88.386 60.771 88.706 60.058 L 88.706 51.518 L 86.726 51.128 L 86.726 49.398 L 88.706 49.398 L 91.396 49.398 L 91.396 62.078 L 93.096 62.468 L 93.096 64.188 L 88.976 64.188 L 88.796 61.998 C 88.336 62.791 87.739 63.401 87.006 63.828 C 86.272 64.261 85.426 64.478 84.466 64.478 Z M 102.092 64.188 L 94.942 64.188 L 94.942 62.468 L 97.172 62.078 L 97.172 51.518 L 94.942 51.128 L 94.942 49.398 L 99.582 49.398 L 99.812 51.278 L 99.842 51.538 C 100.262 50.785 100.779 50.195 101.392 49.768 C 102.005 49.335 102.709 49.118 103.502 49.118 C 103.789 49.118 104.079 49.145 104.372 49.198 C 104.672 49.245 104.885 49.291 105.012 49.338 L 104.652 51.838 L 102.782 51.728 C 102.069 51.688 101.472 51.851 100.992 52.218 C 100.505 52.585 100.132 53.078 99.872 53.698 L 99.872 62.078 L 102.092 62.468 L 102.092 64.188 Z" style="white-space: pre;"/>
  <path d="M 142.08 179.765 L 134.93 179.765 L 134.93 178.045 L 137.16 177.655 L 137.16 161.975 L 134.93 161.595 L 134.93 159.855 L 149.9 159.855 L 149.9 164.645 L 147.74 164.645 L 147.44 161.955 L 139.85 161.955 L 139.85 168.845 L 147.14 168.845 L 147.14 170.965 L 139.85 170.965 L 139.85 177.655 L 142.08 178.045 L 142.08 179.765 ZM 158.206 180.055 C 156.599 180.055 155.346 179.538 154.446 178.505 C 153.546 177.478 153.096 175.875 153.096 173.695 L 153.096 167.095 L 151.396 166.705 L 151.396 164.975 L 153.096 164.975 L 155.786 164.975 L 155.786 173.725 C 155.786 175.298 156.019 176.382 156.486 176.975 C 156.946 177.568 157.669 177.865 158.656 177.865 C 159.616 177.865 160.406 177.672 161.026 177.285 C 161.652 176.898 162.126 176.348 162.446 175.635 L 162.446 167.095 L 160.466 166.705 L 160.466 164.975 L 162.446 164.975 L 165.136 164.975 L 165.136 177.655 L 166.836 178.045 L 166.836 179.765 L 162.716 179.765 L 162.536 177.575 C 162.076 178.368 161.479 178.978 160.746 179.405 C 160.012 179.838 159.166 180.055 158.206 180.055 ZM 175.732 179.765 L 168.582 179.765 L 168.582 178.045 L 170.802 177.655 L 170.802 160.555 L 168.582 160.175 L 168.582 158.435 L 173.502 158.435 L 173.502 177.655 L 175.732 178.045 L 175.732 179.765 ZM 184.657 179.765 L 177.507 179.765 L 177.507 178.045 L 179.727 177.655 L 179.727 160.555 L 177.507 160.175 L 177.507 158.435 L 182.427 158.435 L 182.427 177.655 L 184.657 178.045 L 184.657 179.765 ZM 193.842 180.055 C 192.628 180.055 191.462 179.875 190.342 179.515 C 189.215 179.162 188.142 178.615 187.122 177.875 L 187.122 173.625 L 189.212 173.625 L 189.672 176.755 C 190.258 177.122 190.898 177.405 191.592 177.605 C 192.285 177.805 193.035 177.905 193.842 177.905 C 194.748 177.905 195.518 177.765 196.152 177.485 C 196.785 177.212 197.272 176.828 197.612 176.335 C 197.945 175.842 198.112 175.268 198.112 174.615 C 198.112 174.002 197.968 173.462 197.682 172.995 C 197.388 172.535 196.905 172.128 196.232 171.775 C 195.565 171.422 194.652 171.115 193.492 170.855 C 192.125 170.535 190.972 170.108 190.032 169.575 C 189.085 169.042 188.368 168.395 187.882 167.635 C 187.395 166.868 187.152 165.995 187.152 165.015 C 187.152 163.975 187.428 163.045 187.982 162.225 C 188.528 161.405 189.295 160.758 190.282 160.285 C 191.268 159.812 192.418 159.575 193.732 159.575 C 195.125 159.575 196.355 159.785 197.422 160.205 C 198.495 160.632 199.378 161.145 200.072 161.745 L 200.072 165.725 L 197.982 165.725 L 197.532 162.885 C 197.118 162.552 196.608 162.275 196.002 162.055 C 195.388 161.842 194.632 161.735 193.732 161.735 C 192.965 161.735 192.288 161.868 191.702 162.135 C 191.122 162.402 190.668 162.778 190.342 163.265 C 190.008 163.745 189.842 164.315 189.842 164.975 C 189.842 165.548 189.992 166.048 190.292 166.475 C 190.585 166.902 191.068 167.278 191.742 167.605 C 192.408 167.925 193.302 168.228 194.422 168.515 C 196.522 169.035 198.112 169.802 199.192 170.815 C 200.272 171.835 200.812 173.092 200.812 174.585 C 200.812 175.652 200.525 176.598 199.952 177.425 C 199.378 178.245 198.568 178.888 197.522 179.355 C 196.475 179.822 195.248 180.055 193.842 180.055 ZM 208.265 179.995 C 207.171 179.995 206.305 179.675 205.665 179.035 C 205.025 178.388 204.705 177.362 204.705 175.955 L 204.705 166.965 L 202.365 166.965 L 202.365 164.975 L 204.705 164.975 L 204.705 161.405 L 207.395 161.405 L 207.395 164.975 L 210.605 164.975 L 210.605 166.965 L 207.395 166.965 L 207.395 175.955 C 207.395 176.662 207.535 177.185 207.815 177.525 C 208.101 177.858 208.481 178.025 208.955 178.025 C 209.275 178.025 209.628 177.995 210.015 177.935 C 210.408 177.882 210.715 177.832 210.935 177.785 L 211.305 179.545 C 210.911 179.665 210.431 179.772 209.865 179.865 C 209.291 179.952 208.758 179.995 208.265 179.995 ZM 217.812 180.055 C 216.272 180.055 215.099 179.678 214.292 178.925 C 213.492 178.172 213.092 177.112 213.092 175.745 C 213.092 174.805 213.349 173.988 213.862 173.295 C 214.382 172.595 215.129 172.052 216.102 171.665 C 217.075 171.278 218.242 171.085 219.602 171.085 L 222.242 171.085 L 222.242 169.635 C 222.242 168.742 221.969 168.048 221.422 167.555 C 220.882 167.062 220.119 166.815 219.132 166.815 C 218.512 166.815 217.975 166.892 217.522 167.045 C 217.069 167.192 216.655 167.398 216.282 167.665 L 215.992 169.725 L 213.912 169.725 L 213.912 166.335 C 214.579 165.802 215.352 165.395 216.232 165.115 C 217.119 164.835 218.099 164.695 219.172 164.695 C 220.972 164.695 222.382 165.125 223.402 165.985 C 224.422 166.838 224.932 168.065 224.932 169.665 L 224.932 176.785 C 224.932 176.978 224.935 177.165 224.942 177.345 C 224.942 177.525 224.952 177.708 224.972 177.895 L 226.412 178.045 L 226.412 179.765 L 222.542 179.765 C 222.455 179.365 222.392 179.005 222.352 178.685 C 222.305 178.365 222.272 178.045 222.252 177.725 C 221.732 178.392 221.082 178.945 220.302 179.385 C 219.522 179.832 218.692 180.055 217.812 180.055 Z M 218.202 177.795 C 219.095 177.795 219.912 177.582 220.652 177.155 C 221.392 176.728 221.922 176.212 222.242 175.605 L 222.242 172.925 L 219.502 172.925 C 218.262 172.925 217.332 173.222 216.712 173.815 C 216.092 174.408 215.782 175.072 215.782 175.805 C 215.782 176.452 215.985 176.945 216.392 177.285 C 216.792 177.625 217.395 177.795 218.202 177.795 ZM 235.184 180.055 C 233.844 180.055 232.677 179.742 231.684 179.115 C 230.69 178.488 229.92 177.622 229.374 176.515 C 228.827 175.402 228.554 174.115 228.554 172.655 L 228.554 172.085 C 228.554 170.678 228.817 169.418 229.344 168.305 C 229.87 167.192 230.63 166.312 231.624 165.665 C 232.617 165.018 233.804 164.695 235.184 164.695 C 236.377 164.695 237.42 164.892 238.314 165.285 C 239.214 165.678 239.97 166.215 240.584 166.895 L 240.654 170.455 L 238.544 170.455 L 238.084 167.875 C 237.77 167.555 237.38 167.298 236.914 167.105 C 236.454 166.912 235.907 166.815 235.274 166.815 C 234.474 166.815 233.77 167.052 233.164 167.525 C 232.557 167.998 232.087 168.632 231.754 169.425 C 231.414 170.218 231.244 171.105 231.244 172.085 L 231.244 172.655 C 231.244 173.728 231.4 174.662 231.714 175.455 C 232.027 176.248 232.477 176.862 233.064 177.295 C 233.657 177.728 234.357 177.945 235.164 177.945 C 236.077 177.945 236.834 177.695 237.434 177.195 C 238.04 176.695 238.41 176.008 238.544 175.135 L 240.964 175.135 L 240.994 175.215 C 240.947 176.062 240.697 176.855 240.244 177.595 C 239.784 178.328 239.134 178.922 238.294 179.375 C 237.447 179.828 236.41 180.055 235.184 180.055 ZM 250.097 179.765 L 242.947 179.765 L 242.947 178.045 L 245.167 177.655 L 245.167 160.555 L 242.947 160.175 L 242.947 158.435 L 247.867 158.435 L 247.867 177.655 L 250.097 178.045 L 250.097 179.765 Z M 259.127 179.765 L 252.447 179.765 L 252.447 178.045 L 253.947 177.865 L 253.907 177.805 L 249.627 172.285 L 251.027 170.135 L 256.997 177.715 L 259.127 178.045 L 259.127 179.765 Z M 256.057 167.065 L 247.677 175.485 L 246.677 173.365 L 253.097 166.965 L 253.167 166.885 L 251.587 166.705 L 251.587 164.975 L 257.957 164.975 L 257.957 166.705 L 256.057 167.065 Z" transform="matrix(1, 0, 0, 1, -20.9189453125, 8.163490295410156)" style="white-space: pre;"/>
  <path d="M 142.86 207.765 L 134.93 207.765 L 134.93 206.045 L 137.16 205.655 L 137.16 189.975 L 134.93 189.595 L 134.93 187.855 L 137.16 187.855 L 142.72 187.855 C 144.48 187.855 146.013 188.275 147.32 189.115 C 148.627 189.955 149.647 191.108 150.38 192.575 C 151.107 194.042 151.47 195.718 151.47 197.605 L 151.47 198.035 C 151.47 199.875 151.12 201.532 150.42 203.005 C 149.713 204.472 148.717 205.632 147.43 206.485 C 146.143 207.338 144.62 207.765 142.86 207.765 Z M 139.85 189.975 L 139.85 205.655 L 142.72 205.655 C 143.98 205.655 145.06 205.312 145.96 204.625 C 146.86 203.938 147.557 203.018 148.05 201.865 C 148.537 200.712 148.78 199.435 148.78 198.035 L 148.78 197.575 C 148.78 196.128 148.537 194.832 148.05 193.685 C 147.557 192.545 146.86 191.642 145.96 190.975 C 145.06 190.308 143.98 189.975 142.72 189.975 L 139.85 189.975 ZM 160.103 208.055 C 158.737 208.055 157.547 207.742 156.533 207.115 C 155.527 206.488 154.747 205.622 154.193 204.515 C 153.64 203.402 153.363 202.115 153.363 200.655 L 153.363 200.055 C 153.363 198.648 153.653 197.392 154.233 196.285 C 154.813 195.178 155.583 194.305 156.543 193.665 C 157.503 193.018 158.553 192.695 159.693 192.695 C 161.027 192.695 162.14 192.968 163.033 193.515 C 163.933 194.062 164.61 194.832 165.063 195.825 C 165.523 196.812 165.753 197.975 165.753 199.315 L 165.753 200.995 L 156.153 200.995 L 156.113 201.065 C 156.133 202.012 156.3 202.852 156.613 203.585 C 156.927 204.318 157.38 204.895 157.973 205.315 C 158.567 205.735 159.277 205.945 160.103 205.945 C 161.017 205.945 161.817 205.815 162.503 205.555 C 163.19 205.295 163.787 204.938 164.293 204.485 L 165.343 206.235 C 164.817 206.742 164.117 207.172 163.243 207.525 C 162.37 207.878 161.323 208.055 160.103 208.055 Z M 156.213 198.825 L 156.233 198.895 L 163.063 198.895 L 163.063 198.535 C 163.063 197.828 162.937 197.192 162.683 196.625 C 162.43 196.065 162.057 195.625 161.563 195.305 C 161.063 194.978 160.44 194.815 159.693 194.815 C 159.093 194.815 158.547 194.992 158.053 195.345 C 157.56 195.698 157.153 196.175 156.833 196.775 C 156.52 197.375 156.313 198.058 156.213 198.825 ZM 176.033 207.765 L 173.663 207.765 L 168.403 194.915 L 166.873 194.705 L 166.873 192.975 L 173.073 192.975 L 173.073 194.705 L 171.143 194.985 L 174.433 203.405 L 174.813 204.595 L 174.893 204.595 L 175.333 203.405 L 178.383 194.985 L 176.393 194.705 L 176.393 192.975 L 182.593 192.975 L 182.593 194.705 L 181.033 194.915 L 176.033 207.765 Z" transform="matrix(1, 0, 0, 1, -20.9189453125, 8.163490295410156)" style="white-space: pre;"/>
</svg>