<?xml version="1.0" encoding="utf-8"?>
<svg width="300px" height="300px" viewBox="6.138 4.464 235.491 229.353" xmlns="http://www.w3.org/2000/svg">
  <defs>
    <linearGradient gradientUnits="userSpaceOnUse" x1="250" y1="75.938" x2="250" y2="290.134" id="gradient-0" gradientTransform="matrix(0.88598, -0.463723, 0.354316, 0.676948, -204.768801, 141.578405)">
      <stop offset="0" style="stop-color: rgb(128, 137, 155);"/>
      <stop offset="1" style="stop-color: rgb(0, 17, 78);"/>
    </linearGradient>
  </defs>
  <circle style="paint-order: fill; fill: url(#gradient-0);" cx="119.525" cy="114.955" r="107.098"/>
  <path d="M 158.365 166.294 L 151.215 166.294 L 151.215 164.574 L 153.435 164.184 L 153.435 148.424 L 148.925 148.424 L 148.535 151.184 L 146.505 151.184 L 146.505 146.384 L 163.055 146.384 L 163.055 151.184 L 161.055 151.184 L 160.645 148.424 L 156.135 148.424 L 156.135 164.184 L 158.365 164.574 L 158.365 166.294 Z M 172.232 166.294 L 165.082 166.294 L 165.082 164.574 L 167.312 164.184 L 167.312 147.084 L 165.082 146.704 L 165.082 144.964 L 170.002 144.964 L 170.002 153.474 C 170.515 152.761 171.139 152.207 171.872 151.814 C 172.612 151.421 173.435 151.224 174.342 151.224 C 175.922 151.224 177.152 151.701 178.032 152.654 C 178.905 153.601 179.342 155.057 179.342 157.024 L 179.342 164.184 L 181.572 164.574 L 181.572 166.294 L 174.422 166.294 L 174.422 164.574 L 176.652 164.184 L 176.652 156.994 C 176.652 155.774 176.389 154.874 175.862 154.294 C 175.335 153.707 174.555 153.414 173.522 153.414 C 172.782 153.414 172.109 153.591 171.502 153.944 C 170.895 154.291 170.395 154.767 170.002 155.374 L 170.002 164.184 L 172.232 164.574 L 172.232 166.294 Z M 188.185 166.584 C 186.645 166.584 185.472 166.207 184.665 165.454 C 183.865 164.701 183.465 163.641 183.465 162.274 C 183.465 161.334 183.722 160.517 184.235 159.824 C 184.755 159.124 185.502 158.581 186.475 158.194 C 187.448 157.807 188.615 157.614 189.975 157.614 L 192.615 157.614 L 192.615 156.164 C 192.615 155.271 192.342 154.577 191.795 154.084 C 191.255 153.591 190.492 153.344 189.505 153.344 C 188.885 153.344 188.348 153.421 187.895 153.574 C 187.442 153.721 187.028 153.927 186.655 154.194 L 186.365 156.254 L 184.285 156.254 L 184.285 152.864 C 184.952 152.331 185.725 151.924 186.605 151.644 C 187.492 151.364 188.472 151.224 189.545 151.224 C 191.345 151.224 192.755 151.654 193.775 152.514 C 194.795 153.367 195.305 154.594 195.305 156.194 L 195.305 163.314 C 195.305 163.507 195.308 163.694 195.315 163.874 C 195.315 164.054 195.325 164.237 195.345 164.424 L 196.785 164.574 L 196.785 166.294 L 192.915 166.294 C 192.828 165.894 192.765 165.534 192.725 165.214 C 192.678 164.894 192.645 164.574 192.625 164.254 C 192.105 164.921 191.455 165.474 190.675 165.914 C 189.895 166.361 189.065 166.584 188.185 166.584 Z M 188.575 164.324 C 189.468 164.324 190.285 164.111 191.025 163.684 C 191.765 163.257 192.295 162.741 192.615 162.134 L 192.615 159.454 L 189.875 159.454 C 188.635 159.454 187.705 159.751 187.085 160.344 C 186.465 160.937 186.155 161.601 186.155 162.334 C 186.155 162.981 186.358 163.474 186.765 163.814 C 187.165 164.154 187.768 164.324 188.575 164.324 Z M 206.017 166.294 L 198.867 166.294 L 198.867 164.574 L 201.097 164.184 L 201.097 153.624 L 198.867 153.234 L 198.867 151.504 L 203.507 151.504 L 203.697 153.704 C 204.19 152.917 204.807 152.307 205.547 151.874 C 206.287 151.441 207.134 151.224 208.087 151.224 C 209.68 151.224 210.914 151.691 211.787 152.624 C 212.66 153.564 213.097 155.007 213.097 156.954 L 213.097 164.184 L 215.327 164.574 L 215.327 166.294 L 208.177 166.294 L 208.177 164.574 L 210.407 164.184 L 210.407 157.014 C 210.407 155.707 210.15 154.781 209.637 154.234 C 209.124 153.687 208.337 153.414 207.277 153.414 C 206.504 153.414 205.817 153.601 205.217 153.974 C 204.624 154.347 204.147 154.857 203.787 155.504 L 203.787 164.184 L 206.017 164.574 L 206.017 166.294 Z M 224.033 166.294 L 216.883 166.294 L 216.883 164.574 L 219.113 164.184 L 219.113 147.084 L 216.883 146.704 L 216.883 144.964 L 221.803 144.964 L 221.803 153.474 C 222.316 152.761 222.939 152.207 223.673 151.814 C 224.413 151.421 225.236 151.224 226.143 151.224 C 227.723 151.224 228.953 151.701 229.833 152.654 C 230.706 153.601 231.143 155.057 231.143 157.024 L 231.143 164.184 L 233.373 164.574 L 233.373 166.294 L 226.223 166.294 L 226.223 164.574 L 228.453 164.184 L 228.453 156.994 C 228.453 155.774 228.189 154.874 227.663 154.294 C 227.136 153.707 226.356 153.414 225.323 153.414 C 224.583 153.414 223.909 153.591 223.303 153.944 C 222.696 154.291 222.196 154.767 221.803 155.374 L 221.803 164.184 L 224.033 164.574 L 224.033 166.294 Z" style="white-space: pre; fill: rgb(255, 255, 255);"/>
  <path d="M 154.235 194.294 L 146.305 194.294 L 146.305 192.574 L 148.535 192.184 L 148.535 176.504 L 146.305 176.124 L 146.305 174.384 L 148.535 174.384 L 154.095 174.384 C 155.855 174.384 157.388 174.804 158.695 175.644 C 160.002 176.484 161.022 177.637 161.755 179.104 C 162.482 180.571 162.845 182.247 162.845 184.134 L 162.845 184.564 C 162.845 186.404 162.495 188.061 161.795 189.534 C 161.088 191.001 160.092 192.161 158.805 193.014 C 157.518 193.867 155.995 194.294 154.235 194.294 Z M 151.225 176.504 L 151.225 192.184 L 154.095 192.184 C 155.355 192.184 156.435 191.841 157.335 191.154 C 158.235 190.467 158.932 189.547 159.425 188.394 C 159.912 187.241 160.155 185.964 160.155 184.564 L 160.155 184.104 C 160.155 182.657 159.912 181.361 159.425 180.214 C 158.932 179.074 158.235 178.171 157.335 177.504 C 156.435 176.837 155.355 176.504 154.095 176.504 L 151.225 176.504 Z M 171.429 194.584 C 170.062 194.584 168.882 194.261 167.889 193.614 C 166.902 192.974 166.139 192.087 165.599 190.954 C 165.065 189.821 164.799 188.524 164.799 187.064 L 164.799 186.764 C 164.799 185.304 165.065 184.007 165.599 182.874 C 166.139 181.734 166.902 180.841 167.889 180.194 C 168.882 179.547 170.052 179.224 171.399 179.224 C 172.765 179.224 173.942 179.547 174.929 180.194 C 175.922 180.841 176.685 181.731 177.219 182.864 C 177.759 183.997 178.029 185.297 178.029 186.764 L 178.029 187.064 C 178.029 188.531 177.759 189.831 177.219 190.964 C 176.685 192.097 175.925 192.984 174.939 193.624 C 173.952 194.264 172.782 194.584 171.429 194.584 Z M 171.429 192.474 C 172.282 192.474 172.999 192.241 173.579 191.774 C 174.159 191.301 174.595 190.657 174.889 189.844 C 175.189 189.031 175.339 188.104 175.339 187.064 L 175.339 186.764 C 175.339 185.724 175.189 184.794 174.889 183.974 C 174.595 183.161 174.155 182.521 173.569 182.054 C 172.989 181.581 172.265 181.344 171.399 181.344 C 170.539 181.344 169.819 181.581 169.239 182.054 C 168.652 182.521 168.215 183.161 167.929 183.974 C 167.635 184.794 167.489 185.724 167.489 186.764 L 167.489 187.064 C 167.489 188.104 167.635 189.031 167.929 189.844 C 168.215 190.657 168.655 191.301 169.249 191.774 C 169.835 192.241 170.562 192.474 171.429 192.474 Z M 186.389 194.584 C 185.189 194.584 184.159 194.284 183.299 193.684 C 182.433 193.091 181.773 192.261 181.319 191.194 C 180.866 190.127 180.639 188.881 180.639 187.454 L 180.639 187.174 C 180.639 185.587 180.866 184.197 181.319 183.004 C 181.773 181.811 182.433 180.881 183.299 180.214 C 184.166 179.554 185.206 179.224 186.419 179.224 C 187.293 179.224 188.066 179.387 188.739 179.714 C 189.406 180.034 189.976 180.501 190.449 181.114 L 190.449 175.084 L 188.219 174.704 L 188.219 172.964 L 190.449 172.964 L 193.149 172.964 L 193.149 192.184 L 195.369 192.574 L 195.369 194.294 L 190.809 194.294 L 190.589 192.534 C 190.103 193.207 189.513 193.717 188.819 194.064 C 188.119 194.411 187.309 194.584 186.389 194.584 Z M 187.079 192.394 C 187.879 192.394 188.553 192.211 189.099 191.844 C 189.646 191.484 190.096 190.971 190.449 190.304 L 190.449 183.434 C 190.103 182.814 189.653 182.324 189.099 181.964 C 188.546 181.597 187.879 181.414 187.099 181.414 C 186.246 181.414 185.539 181.657 184.979 182.144 C 184.426 182.631 184.013 183.307 183.739 184.174 C 183.466 185.034 183.329 186.034 183.329 187.174 L 183.329 187.454 C 183.329 188.941 183.636 190.137 184.249 191.044 C 184.856 191.944 185.799 192.394 187.079 192.394 Z M 203.898 194.584 C 202.532 194.584 201.342 194.271 200.328 193.644 C 199.322 193.017 198.542 192.151 197.988 191.044 C 197.435 189.931 197.158 188.644 197.158 187.184 L 197.158 186.584 C 197.158 185.177 197.448 183.921 198.028 182.814 C 198.608 181.707 199.378 180.834 200.338 180.194 C 201.298 179.547 202.348 179.224 203.488 179.224 C 204.822 179.224 205.935 179.497 206.828 180.044 C 207.728 180.591 208.405 181.361 208.858 182.354 C 209.318 183.341 209.548 184.504 209.548 185.844 L 209.548 187.524 L 199.948 187.524 L 199.908 187.594 C 199.928 188.541 200.095 189.381 200.408 190.114 C 200.722 190.847 201.175 191.424 201.768 191.844 C 202.362 192.264 203.072 192.474 203.898 192.474 C 204.812 192.474 205.612 192.344 206.298 192.084 C 206.985 191.824 207.582 191.467 208.088 191.014 L 209.138 192.764 C 208.612 193.271 207.912 193.701 207.038 194.054 C 206.165 194.407 205.118 194.584 203.898 194.584 Z M 200.008 185.354 L 200.028 185.424 L 206.858 185.424 L 206.858 185.064 C 206.858 184.357 206.732 183.721 206.478 183.154 C 206.225 182.594 205.852 182.154 205.358 181.834 C 204.858 181.507 204.235 181.344 203.488 181.344 C 202.888 181.344 202.342 181.521 201.848 181.874 C 201.355 182.227 200.948 182.704 200.628 183.304 C 200.315 183.904 200.108 184.587 200.008 185.354 Z M 218.143 194.584 C 216.536 194.584 215.283 194.067 214.383 193.034 C 213.483 192.007 213.033 190.404 213.033 188.224 L 213.033 181.624 L 211.333 181.234 L 211.333 179.504 L 213.033 179.504 L 215.723 179.504 L 215.723 188.254 C 215.723 189.827 215.956 190.911 216.423 191.504 C 216.883 192.097 217.606 192.394 218.593 192.394 C 219.553 192.394 220.343 192.201 220.963 191.814 C 221.589 191.427 222.063 190.877 222.383 190.164 L 222.383 181.624 L 220.403 181.234 L 220.403 179.504 L 222.383 179.504 L 225.073 179.504 L 225.073 192.184 L 226.773 192.574 L 226.773 194.294 L 222.653 194.294 L 222.473 192.104 C 222.013 192.897 221.416 193.507 220.683 193.934 C 219.949 194.367 219.103 194.584 218.143 194.584 Z M 235.769 194.294 L 228.619 194.294 L 228.619 192.574 L 230.849 192.184 L 230.849 181.624 L 228.619 181.234 L 228.619 179.504 L 233.259 179.504 L 233.489 181.384 L 233.519 181.644 C 233.939 180.891 234.456 180.301 235.069 179.874 C 235.682 179.441 236.386 179.224 237.179 179.224 C 237.466 179.224 237.756 179.251 238.049 179.304 C 238.349 179.351 238.562 179.397 238.689 179.444 L 238.329 181.944 L 236.459 181.834 C 235.746 181.794 235.149 181.957 234.669 182.324 C 234.182 182.691 233.809 183.184 233.549 183.804 L 233.549 192.184 L 235.769 192.574 L 235.769 194.294 Z" style="white-space: pre; fill: rgb(255, 255, 255);"/>
</svg>